<svg xmlns="http://www.w3.org/2000/svg" viewBox="0 0 64 64" role="img" aria-label="Token Calculator">
  <rect width="64" height="64" rx="14" fill="currentColor" opacity="0.0"/>
  <circle cx="58.00" cy="32.00" r="1.80" fill="white"/>
  <circle cx="56.15" cy="37.37" r="2.02" fill="white"/>
  <circle cx="51.71" cy="40.55" r="2.23" fill="white"/>
  <circle cx="46.64" cy="41.13" r="2.42" fill="white"/>
  <circle cx="42.06" cy="39.87" r="2.58" fill="white"/>
  <circle cx="38.23" cy="37.61" r="2.70" fill="white"/>
  <circle cx="34.97" cy="34.89" r="2.77" fill="white"/>
  <circle cx="32.00" cy="32.00" r="2.80" fill="white"/>
  <circle cx="29.03" cy="29.11" r="2.77" fill="white"/>
  <circle cx="25.77" cy="26.39" r="2.70" fill="white"/>
  <circle cx="21.94" cy="24.13" r="2.58" fill="white"/>
  <circle cx="17.36" cy="22.87" r="2.42" fill="white"/>
  <circle cx="12.29" cy="23.45" r="2.23" fill="white"/>
  <circle cx="7.85" cy="26.63" r="2.02" fill="white"/>
  <circle cx="6.00" cy="32.00" r="1.80" fill="white"/>
  <circle cx="7.85" cy="37.37" r="2.02" fill="white"/>
  <circle cx="12.29" cy="40.55" r="2.23" fill="white"/>
  <circle cx="17.36" cy="41.13" r="2.42" fill="white"/>
  <circle cx="21.94" cy="39.87" r="2.58" fill="white"/>
  <circle cx="25.77" cy="37.61" r="2.70" fill="white"/>
  <circle cx="29.03" cy="34.89" r="2.77" fill="white"/>
  <circle cx="32.00" cy="32.00" r="2.80" fill="white"/>
  <circle cx="34.97" cy="29.11" r="2.77" fill="white"/>
  <circle cx="38.23" cy="26.39" r="2.70" fill="white"/>
  <circle cx="42.06" cy="24.13" r="2.58" fill="white"/>
  <circle cx="46.64" cy="22.87" r="2.42" fill="white"/>
  <circle cx="51.71" cy="23.45" r="2.23" fill="white"/>
  <circle cx="56.15" cy="26.63" r="2.02" fill="white"/>
</svg>
