<svg xmlns="http://www.w3.org/2000/svg" viewBox="0 0 240 120" role="img" aria-label="Token cost calculator">
  <title>Token cost calculator</title>
  <desc>An infinity loop made of small token dots. Each dot represents a counted token; the loop conveys comparison across models.</desc>
  <g fill="currentColor">
    <circle cx="217.02" cy="73.81" r="2.57"/>
    <circle cx="208.89" cy="85.04" r="2.74"/>
    <circle cx="197.58" cy="92.23" r="2.90"/>
    <circle cx="185.10" cy="95.19" r="3.05"/>
    <circle cx="172.89" cy="94.64" r="3.19"/>
    <circle cx="161.68" cy="91.50" r="3.31"/>
    <circle cx="151.66" cy="86.63" r="3.41"/>
    <circle cx="142.73" cy="80.68" r="3.49"/>
    <circle cx="134.67" cy="74.07" r="3.55"/>
    <circle cx="127.19" cy="67.12" r="3.59"/>
    <circle cx="112.81" cy="52.88" r="3.59"/>
    <circle cx="105.33" cy="45.93" r="3.55"/>
    <circle cx="97.27" cy="39.32" r="3.49"/>
    <circle cx="88.34" cy="33.37" r="3.41"/>
    <circle cx="78.32" cy="28.50" r="3.31"/>
    <circle cx="67.11" cy="25.36" r="3.19"/>
    <circle cx="54.90" cy="24.81" r="3.05"/>
    <circle cx="42.42" cy="27.77" r="2.90"/>
    <circle cx="31.11" cy="34.96" r="2.74"/>
    <circle cx="22.98" cy="46.19" r="2.57"/>
    <circle cx="22.98" cy="73.81" r="2.57"/>
    <circle cx="31.11" cy="85.04" r="2.74"/>
    <circle cx="42.42" cy="92.23" r="2.90"/>
    <circle cx="54.90" cy="95.19" r="3.05"/>
    <circle cx="67.11" cy="94.64" r="3.19"/>
    <circle cx="78.32" cy="91.50" r="3.31"/>
    <circle cx="88.34" cy="86.63" r="3.41"/>
    <circle cx="97.27" cy="80.68" r="3.49"/>
    <circle cx="105.33" cy="74.07" r="3.55"/>
    <circle cx="112.81" cy="67.12" r="3.59"/>
    <circle cx="127.19" cy="52.88" r="3.59"/>
    <circle cx="134.67" cy="45.93" r="3.55"/>
    <circle cx="142.73" cy="39.32" r="3.49"/>
    <circle cx="151.66" cy="33.37" r="3.41"/>
    <circle cx="161.68" cy="28.50" r="3.31"/>
    <circle cx="172.89" cy="25.36" r="3.19"/>
    <circle cx="185.10" cy="24.81" r="3.05"/>
    <circle cx="197.58" cy="27.77" r="2.90"/>
    <circle cx="208.89" cy="34.96" r="2.74"/>
    <circle cx="217.02" cy="46.19" r="2.57"/>
  </g>
  <g fill="currentColor" opacity="0.55">
    <circle cx="220.00" cy="60.00" r="4.00"/>
    <circle cx="120.00" cy="60.00" r="5.20"/>
    <circle cx="20.00" cy="60.00" r="4.00"/>
    <circle cx="120.00" cy="60.00" r="5.20"/>
  </g>
</svg>
